<?xml version="1.0" standalone="no"?>
<!DOCTYPE svg PUBLIC "-//W3C//DTD SVG 20010904//EN"
 "http://www.w3.org/TR/2001/REC-SVG-20010904/DTD/svg10.dtd">
<svg version="1.0" xmlns="http://www.w3.org/2000/svg"
 width="1660.000000pt" height="1092.000000pt" viewBox="0 0 1660.000000 1092.000000"
 preserveAspectRatio="xMidYMid meet">

<g transform="translate(0.000000,1092.000000) scale(0.100000,-0.100000)"
fill="#000000" stroke="none">
<path d="M5610 10447 c-3 -3 -61 -8 -130 -12 -69 -4 -127 -8 -130 -10 -3 -2
-39 -6 -80 -10 -84 -8 -398 -58 -457 -74 -21 -5 -72 -17 -113 -26 -184 -41
-605 -171 -637 -197 -7 -6 -13 -7 -13 -4 0 4 -12 1 -27 -7 -16 -8 -64 -29
-108 -47 -44 -18 -105 -44 -135 -58 -30 -15 -58 -25 -62 -24 -5 1 -8 -2 -8 -8
0 -5 -8 -10 -17 -11 -10 0 -58 -22 -108 -50 -49 -27 -112 -60 -140 -75 -85
-43 -110 -57 -115 -64 -3 -3 -25 -17 -50 -31 -56 -30 -102 -60 -195 -124 -27
-19 -58 -38 -67 -41 -10 -4 -18 -10 -18 -15 0 -5 -7 -9 -15 -9 -8 0 -15 -4
-15 -8 0 -4 -28 -27 -62 -50 -77 -52 -227 -170 -302 -237 -12 -11 -49 -42 -81
-70 -62 -52 -352 -341 -395 -393 -61 -73 -154 -172 -162 -172 -9 0 -75 50
-121 91 -48 43 -240 122 -322 134 -58 7 -169 8 -205 0 -14 -3 -41 -8 -60 -11
-19 -4 -54 -15 -77 -25 -24 -10 -43 -16 -43 -13 0 7 -126 -63 -205 -114 -87
-57 -291 -263 -277 -280 2 -3 0 -8 -5 -11 -20 -15 -81 -137 -106 -216 -59
-180 -63 -415 -11 -610 16 -63 55 -168 63 -175 4 -3 15 -23 26 -45 10 -22 29
-54 42 -71 12 -17 23 -34 23 -37 0 -4 8 -15 18 -26 9 -10 39 -43 65 -74 27
-31 74 -74 105 -95 65 -43 173 -98 186 -94 5 2 5 -7 2 -20 -28 -90 -69 -246
-86 -324 -10 -44 -20 -89 -24 -100 -9 -29 -43 -227 -56 -324 -6 -47 -13 -96
-15 -110 -2 -14 -7 -56 -10 -95 -3 -38 -8 -83 -10 -100 -2 -16 -7 -100 -10
-185 -7 -144 -10 -159 -38 -220 -17 -36 -32 -67 -32 -70 -2 -8 -16 -41 -37
-90 -49 -114 -112 -342 -138 -501 -5 -35 -12 -73 -14 -84 -38 -204 -55 -654
-36 -946 9 -133 18 -231 25 -264 2 -11 7 -51 10 -90 4 -38 20 -142 36 -230 35
-197 35 -195 55 -274 9 -36 18 -74 20 -84 6 -34 55 -201 64 -222 8 -18 56
-155 61 -173 4 -16 11 -38 19 -57 5 -11 23 -56 40 -99 18 -44 36 -87 41 -95 4
-9 26 -54 48 -101 54 -115 114 -222 167 -298 24 -35 44 -67 44 -72 0 -6 5 -10
10 -10 6 0 10 -7 10 -15 0 -7 6 -18 13 -22 8 -4 22 -21 32 -38 10 -16 23 -34
29 -40 6 -5 38 -44 70 -85 33 -41 103 -116 155 -167 118 -114 107 -104 232
-199 57 -43 106 -81 109 -84 8 -9 228 -132 290 -162 93 -45 202 -90 265 -110
267 -84 387 -109 665 -137 129 -13 539 -11 685 4 295 31 477 73 774 180 28 10
456 12 2030 8 l1996 -5 72 -25 c40 -13 81 -26 90 -28 10 -2 52 -13 93 -24 41
-11 91 -23 110 -26 19 -3 51 -10 70 -15 47 -12 210 -38 290 -46 36 -3 68 -8
71 -10 37 -22 1706 -27 1924 -6 309 30 465 57 615 109 266 90 468 252 564 452
14 30 26 60 26 65 1 27 24 36 150 61 204 40 443 100 575 144 235 78 558 207
623 249 12 8 22 11 22 7 0 -4 12 1 27 10 14 10 74 42 131 72 58 30 117 63 130
74 14 10 31 19 38 19 8 0 14 4 14 9 0 5 8 11 18 15 9 3 31 15 47 26 94 62 79
59 400 75 61 3 137 8 170 10 33 3 92 7 130 10 88 7 243 24 270 30 11 2 40 7
65 10 175 21 389 77 521 136 48 22 92 39 98 39 6 0 11 4 11 10 0 5 11 12 25
16 14 3 25 10 25 14 0 5 9 12 20 15 11 3 26 12 32 18 7 7 33 28 58 46 39 30
66 57 122 121 23 25 68 90 68 96 0 3 10 20 22 37 13 18 22 34 22 37 -1 3 6 21
16 40 10 19 18 38 19 42 1 4 3 13 6 20 11 34 35 126 39 153 3 17 10 65 17 108
16 107 7 266 -25 422 -32 154 -139 409 -203 485 -13 16 -23 32 -23 36 0 5 -11
23 -25 39 -14 17 -37 45 -53 63 -95 116 -217 220 -361 309 -49 30 -199 103
-212 103 -11 0 -79 71 -79 83 0 5 -6 14 -12 22 -7 7 -24 28 -38 45 -30 40
-172 180 -182 180 -3 0 -13 6 -20 13 -45 45 -271 162 -350 182 -40 10 -47 24
-53 101 -14 179 -33 370 -40 394 -3 8 -7 33 -10 55 -5 33 -46 229 -60 285 -20
77 -43 159 -48 167 -3 5 -8 22 -11 37 -4 23 -24 83 -63 186 -3 8 -7 20 -9 25
-1 6 -12 33 -24 60 -12 28 -25 59 -30 70 -22 53 -163 341 -169 345 -4 3 -21
30 -37 60 -15 30 -39 69 -51 86 -13 17 -23 35 -23 40 0 5 -11 22 -25 38 -14
16 -25 33 -25 37 0 4 -6 14 -13 21 -12 12 -32 40 -82 116 -12 18 -45 60 -61
76 -6 6 -13 16 -15 23 -15 41 -369 414 -475 500 -21 18 -51 42 -66 55 -62 54
-78 66 -176 140 -56 42 -119 87 -140 100 -20 12 -46 30 -56 40 -11 10 -25 18
-32 18 -6 0 -26 13 -44 28 -31 28 -31 29 -20 71 25 93 5 331 -40 471 -21 68
-90 213 -102 218 -5 2 -8 8 -8 14 0 25 -184 228 -208 228 -6 0 -12 4 -14 8 -8
21 -162 102 -248 131 -258 85 -549 74 -837 -33 -75 -28 -240 -119 -263 -146
-3 -3 -27 -23 -55 -45 -86 -68 -169 -161 -249 -278 -27 -40 -53 -75 -58 -78
-6 -4 -33 -7 -62 -7 -29 0 -83 -3 -122 -6 l-69 -6 -44 90 c-24 50 -48 90 -53
90 -4 0 -8 5 -8 10 0 16 -17 36 -100 117 -41 40 -81 73 -87 73 -7 0 -13 5 -13
10 0 6 -6 10 -14 10 -7 0 -19 7 -26 15 -7 8 -16 12 -21 9 -5 -3 -9 -1 -9 3 0
5 -42 22 -92 38 -142 45 -326 41 -468 -11 -82 -29 -205 -91 -245 -122 -35 -28
-56 -28 -82 1 -24 26 -142 135 -208 192 -26 22 -70 61 -99 88 -29 26 -57 47
-63 47 -5 0 -19 10 -31 23 -23 25 -35 35 -72 58 -14 9 -38 29 -55 43 -16 15
-47 36 -67 47 -21 11 -38 24 -38 29 0 5 -9 11 -19 15 -11 3 -35 18 -54 33 -19
15 -50 36 -68 47 -48 29 -61 38 -96 63 -17 12 -35 22 -41 22 -5 0 -20 8 -33
18 -47 37 -426 233 -559 289 -111 47 -233 97 -240 99 -3 0 -18 6 -35 13 -51
20 -59 23 -85 27 -13 3 -29 9 -35 13 -15 12 -323 103 -460 136 -61 15 -367 74
-410 79 -27 4 -63 9 -80 11 -34 6 -84 12 -170 20 -33 4 -73 9 -90 11 -40 7
-649 16 -655 11z m706 -312 c1051 -108 2022 -549 2786 -1264 l87 -82 -50 -75
c-116 -173 -181 -372 -210 -642 -16 -155 -7 -556 15 -641 67 -262 214 -432
421 -487 76 -21 211 -18 287 6 81 25 174 84 221 142 20 24 86 131 148 238 143
250 135 240 447 545 110 108 139 142 168 200 35 72 64 193 64 270 l0 44 43 5
c170 21 514 11 741 -20 983 -135 1878 -693 2420 -1508 97 -147 215 -355 267
-474 38 -87 43 -107 47 -194 6 -119 -5 -176 -69 -373 -81 -252 -100 -370 -80
-511 29 -200 144 -324 411 -443 41 -18 113 -50 160 -72 47 -21 121 -52 165
-69 257 -96 465 -347 546 -658 29 -111 36 -285 15 -395 -75 -395 -362 -794
-821 -1139 -536 -403 -1287 -756 -1887 -887 l-85 -18 -6 156 c-4 100 -13 187
-26 242 -125 545 -513 948 -1053 1094 -181 49 -530 96 -808 110 -69 3 -262 10
-430 15 -428 14 -794 51 -984 100 -446 114 -925 495 -1228 977 -139 220 -269
544 -322 798 -14 66 -39 221 -56 345 -17 124 -42 308 -56 410 -65 470 -161
648 -380 705 -382 99 -715 -273 -899 -1004 -115 -457 -124 -953 -29 -1571 54
-352 125 -646 230 -960 273 -814 696 -1412 1310 -1855 l69 -50 -1414 -3 c-778
-1 -1416 0 -1418 2 -2 2 20 26 49 52 450 409 680 973 638 1567 -42 591 -328
1064 -753 1244 -153 65 -251 85 -449 90 -201 6 -326 -8 -523 -57 -65 -17 -119
-29 -120 -28 -10 14 -210 713 -280 978 -79 303 -110 400 -166 519 -175 372
-484 656 -855 784 -168 58 -256 72 -454 72 -130 0 -197 -5 -260 -18 -239 -51
-465 -160 -641 -309 -96 -81 -93 -80 -85 -12 182 1550 1154 2927 2567 3635
577 288 1234 459 1899 493 142 7 528 -4 676 -19z m-1438 -7111 c97 -19 222
-79 289 -139 62 -55 143 -172 173 -252 125 -331 -2 -744 -339 -1095 -163 -171
-348 -301 -588 -415 -562 -267 -1045 -282 -1288 -39 -197 197 -215 521 -49
866 51 107 106 197 173 285 67 89 254 277 351 355 258 206 635 387 905 434
109 19 279 19 373 0z"/>
<path d="M12296 6130 c-394 -45 -726 -213 -955 -485 -222 -262 -361 -599 -378
-919 -12 -226 39 -478 135 -671 205 -414 575 -612 1003 -539 119 21 275 74
359 124 124 73 186 150 315 390 42 80 102 183 133 230 75 114 268 306 413 413
127 93 193 161 238 246 131 247 44 580 -222 845 -177 177 -399 296 -645 345
-117 24 -289 33 -396 21z"/>
<path d="M14736 4295 c-296 -61 -486 -206 -486 -372 0 -223 299 -514 528 -513
86 1 132 26 191 106 188 257 254 561 151 701 -45 62 -107 87 -220 90 -54 1
-125 -4 -164 -12z"/>
</g>
</svg>
